<svg width="1920" height="2842" viewBox="0 0 1920 2842" fill="none" xmlns="http://www.w3.org/2000/svg">
<g opacity="0.2">
<rect x="-561" y="345.726" width="2238" height="1.79327" fill="url(#paint0_linear_1_60)"/>
<rect x="941.76" y="-420" width="2238" height="1.79327" transform="rotate(90 941.76 -420)" fill="url(#paint1_linear_1_60)"/>
<rect x="-561" y="783.284" width="2238" height="1.79327" fill="url(#paint2_linear_1_60)"/>
<rect x="504.202" y="-420" width="2238" height="1.79327" transform="rotate(90 504.202 -420)" fill="url(#paint3_linear_1_60)"/>
<rect x="-561" y="564.505" width="2238" height="1.79327" fill="url(#paint4_linear_1_60)"/>
<rect x="722.981" y="-420" width="2238" height="1.79327" transform="rotate(90 722.981 -420)" fill="url(#paint5_linear_1_60)"/>
<rect x="-561" y="1002.06" width="2238" height="1.79327" fill="url(#paint6_linear_1_60)"/>
<rect x="285.423" y="-420" width="2238" height="1.79327" transform="rotate(90 285.423 -420)" fill="url(#paint7_linear_1_60)"/>
<rect x="-561" y="455.115" width="2238" height="1.79327" fill="url(#paint8_linear_1_60)"/>
<rect x="832.37" y="-420" width="2238" height="1.79327" transform="rotate(90 832.37 -420)" fill="url(#paint9_linear_1_60)"/>
<rect x="-561" y="892.673" width="2238" height="1.79327" fill="url(#paint10_linear_1_60)"/>
<rect x="394.812" y="-420" width="2238" height="1.79327" transform="rotate(90 394.812 -420)" fill="url(#paint11_linear_1_60)"/>
<rect x="-561" y="673.894" width="2238" height="1.79327" fill="url(#paint12_linear_1_60)"/>
<rect x="613.591" y="-420" width="2238" height="1.79327" transform="rotate(90 613.591 -420)" fill="url(#paint13_linear_1_60)"/>
<rect x="-561" y="1111.45" width="2238" height="1.79327" fill="url(#paint14_linear_1_60)"/>
<rect x="176.034" y="-420" width="2238" height="1.79327" transform="rotate(90 176.034 -420)" fill="url(#paint15_linear_1_60)"/>
</g>
<rect x="395" y="621" width="212" height="1.99999" transform="rotate(90 395 621)" fill="url(#paint16_linear_1_60)"/>
<rect x="445" y="786" width="212" height="1.99999" transform="rotate(-180 445 786)" fill="url(#paint17_linear_1_60)"/>
<rect x="285" y="621" width="212" height="1.99999" transform="rotate(90 285 621)" fill="url(#paint18_linear_1_60)"/>
<rect x="445" y="676" width="212" height="1.99999" transform="rotate(-180 445 676)" fill="url(#paint19_linear_1_60)"/>
<g opacity="0.2">
<rect x="339" y="1369.73" width="2238" height="1.79327" fill="url(#paint20_linear_1_60)"/>
<rect x="1841.76" y="604" width="2238" height="1.79327" transform="rotate(90 1841.76 604)" fill="url(#paint21_linear_1_60)"/>
<rect x="339" y="1807.28" width="2238" height="1.79327" fill="url(#paint22_linear_1_60)"/>
<rect x="1404.2" y="604" width="2238" height="1.79327" transform="rotate(90 1404.2 604)" fill="url(#paint23_linear_1_60)"/>
<rect x="339" y="1588.5" width="2238" height="1.79327" fill="url(#paint24_linear_1_60)"/>
<rect x="1622.98" y="604" width="2238" height="1.79327" transform="rotate(90 1622.98 604)" fill="url(#paint25_linear_1_60)"/>
<rect x="339" y="2026.06" width="2238" height="1.79327" fill="url(#paint26_linear_1_60)"/>
<rect x="1185.42" y="604" width="2238" height="1.79327" transform="rotate(90 1185.42 604)" fill="url(#paint27_linear_1_60)"/>
<rect x="339" y="1479.12" width="2238" height="1.79327" fill="url(#paint28_linear_1_60)"/>
<rect x="1732.37" y="604" width="2238" height="1.79327" transform="rotate(90 1732.37 604)" fill="url(#paint29_linear_1_60)"/>
<rect x="339" y="1916.67" width="2238" height="1.79327" fill="url(#paint30_linear_1_60)"/>
<rect x="1294.81" y="604" width="2238" height="1.79327" transform="rotate(90 1294.81 604)" fill="url(#paint31_linear_1_60)"/>
<rect x="339" y="1697.89" width="2238" height="1.79327" fill="url(#paint32_linear_1_60)"/>
<rect x="1513.59" y="604" width="2238" height="1.79327" transform="rotate(90 1513.59 604)" fill="url(#paint33_linear_1_60)"/>
<rect x="339" y="2135.45" width="2238" height="1.79327" fill="url(#paint34_linear_1_60)"/>
<rect x="1076.03" y="604" width="2238" height="1.79327" transform="rotate(90 1076.03 604)" fill="url(#paint35_linear_1_60)"/>
</g>
<rect x="1295" y="1645" width="212" height="1.99999" transform="rotate(90 1295 1645)" fill="url(#paint36_linear_1_60)"/>
<rect x="1345" y="1810" width="212" height="1.99999" transform="rotate(-180 1345 1810)" fill="url(#paint37_linear_1_60)"/>
<rect x="1185" y="1645" width="212" height="1.99999" transform="rotate(90 1185 1645)" fill="url(#paint38_linear_1_60)"/>
<rect x="1345" y="1700" width="212" height="1.99999" transform="rotate(-180 1345 1700)" fill="url(#paint39_linear_1_60)"/>
<defs>
<linearGradient id="paint0_linear_1_60" x1="-548.474" y1="346.623" x2="-534.954" y2="173.899" gradientUnits="userSpaceOnUse">
<stop stop-color="#FFF7F7" stop-opacity="0"/>
<stop offset="0.496682" stop-color="#DD5D4F"/>
<stop offset="1" stop-color="#FFEBE9"/>
</linearGradient>
<linearGradient id="paint1_linear_1_60" x1="954.286" y1="-419.103" x2="967.805" y2="-591.827" gradientUnits="userSpaceOnUse">
<stop stop-color="#FFF7F7" stop-opacity="0"/>
<stop offset="0.496682" stop-color="#DD5D4F"/>
<stop offset="1" stop-color="#FFEBE9"/>
</linearGradient>
<linearGradient id="paint2_linear_1_60" x1="-548.474" y1="784.18" x2="-534.954" y2="611.457" gradientUnits="userSpaceOnUse">
<stop stop-color="#FFF7F7" stop-opacity="0"/>
<stop offset="0.496682" stop-color="#DD5D4F"/>
<stop offset="1" stop-color="#FFEBE9"/>
</linearGradient>
<linearGradient id="paint3_linear_1_60" x1="516.728" y1="-419.103" x2="530.247" y2="-591.827" gradientUnits="userSpaceOnUse">
<stop stop-color="#FFF7F7" stop-opacity="0"/>
<stop offset="0.496682" stop-color="#DD5D4F"/>
<stop offset="1" stop-color="#FFEBE9"/>
</linearGradient>
<linearGradient id="paint4_linear_1_60" x1="-548.474" y1="565.402" x2="-534.954" y2="392.678" gradientUnits="userSpaceOnUse">
<stop stop-color="#FFF7F7" stop-opacity="0"/>
<stop offset="0.496682" stop-color="#DD5D4F"/>
<stop offset="1" stop-color="#FFEBE9"/>
</linearGradient>
<linearGradient id="paint5_linear_1_60" x1="735.507" y1="-419.103" x2="749.026" y2="-591.827" gradientUnits="userSpaceOnUse">
<stop stop-color="#FFF7F7" stop-opacity="0"/>
<stop offset="0.496682" stop-color="#DD5D4F"/>
<stop offset="1" stop-color="#FFEBE9"/>
</linearGradient>
<linearGradient id="paint6_linear_1_60" x1="-548.474" y1="1002.96" x2="-534.954" y2="830.236" gradientUnits="userSpaceOnUse">
<stop stop-color="#FFF7F7" stop-opacity="0"/>
<stop offset="0.496682" stop-color="#DD5D4F"/>
<stop offset="1" stop-color="#FFEBE9"/>
</linearGradient>
<linearGradient id="paint7_linear_1_60" x1="297.949" y1="-419.103" x2="311.469" y2="-591.827" gradientUnits="userSpaceOnUse">
<stop stop-color="#FFF7F7" stop-opacity="0"/>
<stop offset="0.496682" stop-color="#DD5D4F"/>
<stop offset="1" stop-color="#FFEBE9"/>
</linearGradient>
<linearGradient id="paint8_linear_1_60" x1="-548.474" y1="456.012" x2="-534.954" y2="283.288" gradientUnits="userSpaceOnUse">
<stop stop-color="#FFF7F7" stop-opacity="0"/>
<stop offset="0.496682" stop-color="#DD5D4F"/>
<stop offset="1" stop-color="#FFEBE9"/>
</linearGradient>
<linearGradient id="paint9_linear_1_60" x1="844.896" y1="-419.103" x2="858.416" y2="-591.827" gradientUnits="userSpaceOnUse">
<stop stop-color="#FFF7F7" stop-opacity="0"/>
<stop offset="0.496682" stop-color="#DD5D4F"/>
<stop offset="1" stop-color="#FFEBE9"/>
</linearGradient>
<linearGradient id="paint10_linear_1_60" x1="-548.474" y1="893.57" x2="-534.954" y2="720.846" gradientUnits="userSpaceOnUse">
<stop stop-color="#FFF7F7" stop-opacity="0"/>
<stop offset="0.496682" stop-color="#DD5D4F"/>
<stop offset="1" stop-color="#FFEBE9"/>
</linearGradient>
<linearGradient id="paint11_linear_1_60" x1="407.339" y1="-419.103" x2="420.858" y2="-591.827" gradientUnits="userSpaceOnUse">
<stop stop-color="#FFF7F7" stop-opacity="0"/>
<stop offset="0.496682" stop-color="#DD5D4F"/>
<stop offset="1" stop-color="#FFEBE9"/>
</linearGradient>
<linearGradient id="paint12_linear_1_60" x1="-548.474" y1="674.791" x2="-534.954" y2="502.068" gradientUnits="userSpaceOnUse">
<stop stop-color="#FFF7F7" stop-opacity="0"/>
<stop offset="0.496682" stop-color="#DD5D4F"/>
<stop offset="1" stop-color="#FFEBE9"/>
</linearGradient>
<linearGradient id="paint13_linear_1_60" x1="626.117" y1="-419.103" x2="639.637" y2="-591.827" gradientUnits="userSpaceOnUse">
<stop stop-color="#FFF7F7" stop-opacity="0"/>
<stop offset="0.496682" stop-color="#DD5D4F"/>
<stop offset="1" stop-color="#FFEBE9"/>
</linearGradient>
<linearGradient id="paint14_linear_1_60" x1="-548.474" y1="1112.35" x2="-534.954" y2="939.625" gradientUnits="userSpaceOnUse">
<stop stop-color="#FFF7F7" stop-opacity="0"/>
<stop offset="0.496682" stop-color="#DD5D4F"/>
<stop offset="1" stop-color="#FFEBE9"/>
</linearGradient>
<linearGradient id="paint15_linear_1_60" x1="188.56" y1="-419.103" x2="202.079" y2="-591.827" gradientUnits="userSpaceOnUse">
<stop stop-color="#FFF7F7" stop-opacity="0"/>
<stop offset="0.496682" stop-color="#DD5D4F"/>
<stop offset="1" stop-color="#FFEBE9"/>
</linearGradient>
<linearGradient id="paint16_linear_1_60" x1="396.187" y1="622" x2="492.771" y2="517.192" gradientUnits="userSpaceOnUse">
<stop stop-color="#FFF7F7"/>
<stop offset="0.496682" stop-color="#DD5D4F"/>
<stop offset="1" stop-color="#FFEBE9"/>
</linearGradient>
<linearGradient id="paint17_linear_1_60" x1="446.187" y1="787" x2="542.771" y2="682.192" gradientUnits="userSpaceOnUse">
<stop stop-color="#FFF7F7"/>
<stop offset="0.496682" stop-color="#DD5D4F"/>
<stop offset="1" stop-color="#FFEBE9"/>
</linearGradient>
<linearGradient id="paint18_linear_1_60" x1="286.187" y1="622" x2="382.771" y2="517.192" gradientUnits="userSpaceOnUse">
<stop stop-color="#FFF7F7"/>
<stop offset="0.496682" stop-color="#DD5D4F"/>
<stop offset="1" stop-color="#FFEBE9"/>
</linearGradient>
<linearGradient id="paint19_linear_1_60" x1="446.187" y1="677" x2="542.771" y2="572.192" gradientUnits="userSpaceOnUse">
<stop stop-color="#FFF7F7"/>
<stop offset="0.496682" stop-color="#DD5D4F"/>
<stop offset="1" stop-color="#FFEBE9"/>
</linearGradient>
<linearGradient id="paint20_linear_1_60" x1="351.526" y1="1370.62" x2="365.046" y2="1197.9" gradientUnits="userSpaceOnUse">
<stop stop-color="#FFF7F7" stop-opacity="0"/>
<stop offset="0.496682" stop-color="#DD5D4F"/>
<stop offset="1" stop-color="#FFEBE9"/>
</linearGradient>
<linearGradient id="paint21_linear_1_60" x1="1854.29" y1="604.897" x2="1867.81" y2="432.173" gradientUnits="userSpaceOnUse">
<stop stop-color="#FFF7F7" stop-opacity="0"/>
<stop offset="0.496682" stop-color="#DD5D4F"/>
<stop offset="1" stop-color="#FFEBE9"/>
</linearGradient>
<linearGradient id="paint22_linear_1_60" x1="351.526" y1="1808.18" x2="365.046" y2="1635.46" gradientUnits="userSpaceOnUse">
<stop stop-color="#FFF7F7" stop-opacity="0"/>
<stop offset="0.496682" stop-color="#DD5D4F"/>
<stop offset="1" stop-color="#FFEBE9"/>
</linearGradient>
<linearGradient id="paint23_linear_1_60" x1="1416.73" y1="604.897" x2="1430.25" y2="432.173" gradientUnits="userSpaceOnUse">
<stop stop-color="#FFF7F7" stop-opacity="0"/>
<stop offset="0.496682" stop-color="#DD5D4F"/>
<stop offset="1" stop-color="#FFEBE9"/>
</linearGradient>
<linearGradient id="paint24_linear_1_60" x1="351.526" y1="1589.4" x2="365.046" y2="1416.68" gradientUnits="userSpaceOnUse">
<stop stop-color="#FFF7F7" stop-opacity="0"/>
<stop offset="0.496682" stop-color="#DD5D4F"/>
<stop offset="1" stop-color="#FFEBE9"/>
</linearGradient>
<linearGradient id="paint25_linear_1_60" x1="1635.51" y1="604.897" x2="1649.03" y2="432.173" gradientUnits="userSpaceOnUse">
<stop stop-color="#FFF7F7" stop-opacity="0"/>
<stop offset="0.496682" stop-color="#DD5D4F"/>
<stop offset="1" stop-color="#FFEBE9"/>
</linearGradient>
<linearGradient id="paint26_linear_1_60" x1="351.526" y1="2026.96" x2="365.046" y2="1854.24" gradientUnits="userSpaceOnUse">
<stop stop-color="#FFF7F7" stop-opacity="0"/>
<stop offset="0.496682" stop-color="#DD5D4F"/>
<stop offset="1" stop-color="#FFEBE9"/>
</linearGradient>
<linearGradient id="paint27_linear_1_60" x1="1197.95" y1="604.897" x2="1211.47" y2="432.173" gradientUnits="userSpaceOnUse">
<stop stop-color="#FFF7F7" stop-opacity="0"/>
<stop offset="0.496682" stop-color="#DD5D4F"/>
<stop offset="1" stop-color="#FFEBE9"/>
</linearGradient>
<linearGradient id="paint28_linear_1_60" x1="351.526" y1="1480.01" x2="365.046" y2="1307.29" gradientUnits="userSpaceOnUse">
<stop stop-color="#FFF7F7" stop-opacity="0"/>
<stop offset="0.496682" stop-color="#DD5D4F"/>
<stop offset="1" stop-color="#FFEBE9"/>
</linearGradient>
<linearGradient id="paint29_linear_1_60" x1="1744.9" y1="604.897" x2="1758.42" y2="432.173" gradientUnits="userSpaceOnUse">
<stop stop-color="#FFF7F7" stop-opacity="0"/>
<stop offset="0.496682" stop-color="#DD5D4F"/>
<stop offset="1" stop-color="#FFEBE9"/>
</linearGradient>
<linearGradient id="paint30_linear_1_60" x1="351.526" y1="1917.57" x2="365.046" y2="1744.85" gradientUnits="userSpaceOnUse">
<stop stop-color="#FFF7F7" stop-opacity="0"/>
<stop offset="0.496682" stop-color="#DD5D4F"/>
<stop offset="1" stop-color="#FFEBE9"/>
</linearGradient>
<linearGradient id="paint31_linear_1_60" x1="1307.34" y1="604.897" x2="1320.86" y2="432.173" gradientUnits="userSpaceOnUse">
<stop stop-color="#FFF7F7" stop-opacity="0"/>
<stop offset="0.496682" stop-color="#DD5D4F"/>
<stop offset="1" stop-color="#FFEBE9"/>
</linearGradient>
<linearGradient id="paint32_linear_1_60" x1="351.526" y1="1698.79" x2="365.046" y2="1526.07" gradientUnits="userSpaceOnUse">
<stop stop-color="#FFF7F7" stop-opacity="0"/>
<stop offset="0.496682" stop-color="#DD5D4F"/>
<stop offset="1" stop-color="#FFEBE9"/>
</linearGradient>
<linearGradient id="paint33_linear_1_60" x1="1526.12" y1="604.897" x2="1539.64" y2="432.173" gradientUnits="userSpaceOnUse">
<stop stop-color="#FFF7F7" stop-opacity="0"/>
<stop offset="0.496682" stop-color="#DD5D4F"/>
<stop offset="1" stop-color="#FFEBE9"/>
</linearGradient>
<linearGradient id="paint34_linear_1_60" x1="351.526" y1="2136.35" x2="365.046" y2="1963.63" gradientUnits="userSpaceOnUse">
<stop stop-color="#FFF7F7" stop-opacity="0"/>
<stop offset="0.496682" stop-color="#DD5D4F"/>
<stop offset="1" stop-color="#FFEBE9"/>
</linearGradient>
<linearGradient id="paint35_linear_1_60" x1="1088.56" y1="604.897" x2="1102.08" y2="432.173" gradientUnits="userSpaceOnUse">
<stop stop-color="#FFF7F7" stop-opacity="0"/>
<stop offset="0.496682" stop-color="#DD5D4F"/>
<stop offset="1" stop-color="#FFEBE9"/>
</linearGradient>
<linearGradient id="paint36_linear_1_60" x1="1296.19" y1="1646" x2="1392.77" y2="1541.19" gradientUnits="userSpaceOnUse">
<stop stop-color="#FFF7F7"/>
<stop offset="0.496682" stop-color="#DD5D4F"/>
<stop offset="1" stop-color="#FFEBE9"/>
</linearGradient>
<linearGradient id="paint37_linear_1_60" x1="1346.19" y1="1811" x2="1442.77" y2="1706.19" gradientUnits="userSpaceOnUse">
<stop stop-color="#FFF7F7"/>
<stop offset="0.496682" stop-color="#DD5D4F"/>
<stop offset="1" stop-color="#FFEBE9"/>
</linearGradient>
<linearGradient id="paint38_linear_1_60" x1="1186.19" y1="1646" x2="1282.77" y2="1541.19" gradientUnits="userSpaceOnUse">
<stop stop-color="#FFF7F7"/>
<stop offset="0.496682" stop-color="#DD5D4F"/>
<stop offset="1" stop-color="#FFEBE9"/>
</linearGradient>
<linearGradient id="paint39_linear_1_60" x1="1346.19" y1="1701" x2="1442.77" y2="1596.19" gradientUnits="userSpaceOnUse">
<stop stop-color="#FFF7F7"/>
<stop offset="0.496682" stop-color="#DD5D4F"/>
<stop offset="1" stop-color="#FFEBE9"/>
</linearGradient>
</defs>
</svg>
