<svg width="240" height="36" viewBox="0 0 240 36" fill="none" xmlns="http://www.w3.org/2000/svg">
<g clip-path="url(#clip0_1_192)">
<path d="M178.584 10.5462C181.66 10.5462 184.099 11.4806 185.903 13.3496C187.737 15.2185 188.654 17.8143 188.654 21.1369V35.6434H181.113V22.1603C181.113 20.5584 180.684 19.3272 179.826 18.4669C178.998 17.577 177.845 17.132 176.366 17.132C174.887 17.132 173.719 17.577 172.862 18.4669C172.034 19.3272 171.62 20.5584 171.62 22.1603V35.6434H164.078V22.1603C164.078 20.5584 163.65 19.3272 162.792 18.4669C161.964 17.577 160.811 17.132 159.332 17.132C157.853 17.132 156.685 17.577 155.828 18.4669C155 19.3272 154.586 20.5584 154.586 22.1603V35.6434H147V10.8132H154.586V13.9281C155.354 12.8898 156.36 12.074 157.602 11.4806C158.844 10.8577 160.249 10.5462 161.816 10.5462C163.679 10.5462 165.335 10.9467 166.784 11.7476C168.263 12.5486 169.416 13.6907 170.244 15.174C171.102 13.8094 172.27 12.6969 173.749 11.8366C175.228 10.9763 176.839 10.5462 178.584 10.5462Z" fill="#FBFBFB"/>
<path d="M190.564 23.1838C190.564 20.6325 191.037 18.3928 191.984 16.4645C192.96 14.5362 194.276 13.0529 195.932 12.0146C197.588 10.9763 199.436 10.4572 201.477 10.4572C203.222 10.4572 204.745 10.8132 206.046 11.5251C207.377 12.2371 208.397 13.1716 209.107 14.3286V10.8132H216.692V35.6434H209.107V32.128C208.367 33.285 207.332 34.2194 206.001 34.9314C204.7 35.6434 203.177 35.9994 201.432 35.9994C199.421 35.9994 197.588 35.4802 195.932 34.4419C194.276 33.374 192.96 31.8759 191.984 29.9476C191.037 27.9896 190.564 25.735 190.564 23.1838ZM209.107 23.2283C209.107 21.3297 208.574 19.8316 207.51 18.7339C206.475 17.6363 205.203 17.0875 203.695 17.0875C202.186 17.0875 200.9 17.6363 199.835 18.7339C198.8 19.8019 198.283 21.2852 198.283 23.1838C198.283 25.0824 198.8 26.5953 199.835 27.7226C200.9 28.8203 202.186 29.3691 203.695 29.3691C205.203 29.3691 206.475 28.8203 207.51 27.7226C208.574 26.625 209.107 25.1269 209.107 23.2283Z" fill="#FBFBFB"/>
<path d="M224.108 8.23225C222.778 8.23225 221.683 7.84659 220.826 7.07528C219.998 6.27431 219.584 5.29534 219.584 4.13837C219.584 2.95174 219.998 1.97277 220.826 1.20146C221.683 0.400488 222.778 0 224.108 0C225.41 0 226.474 0.400488 227.302 1.20146C228.16 1.97277 228.589 2.95174 228.589 4.13837C228.589 5.29534 228.16 6.27431 227.302 7.07528C226.474 7.84659 225.41 8.23225 224.108 8.23225ZM227.879 10.8132V35.6434H220.293V10.8132H227.879Z" fill="#FBFBFB"/>
<path d="M239.075 2.71442V35.6434H231.49V2.71442H239.075Z" fill="#FBFBFB"/>
<path fill-rule="evenodd" clip-rule="evenodd" d="M60.1051 13.3087C58.39 11.4162 56.113 10.4699 53.2742 10.4699C51.6182 10.4699 50.1248 10.7952 48.7941 11.4457C47.4634 12.0963 46.4136 12.9686 45.6448 14.0628V2.66309H38.0598V35.4871H45.6448V22.047C45.6448 20.391 46.0736 19.1047 46.9311 18.188C47.7887 17.2713 48.942 16.8129 50.391 16.8129C51.84 16.8129 52.9932 17.2713 53.8508 18.188C54.7084 19.1047 55.1371 20.391 55.1371 22.047V35.4871H62.6778V21.0268C62.6778 17.7444 61.8202 15.1717 60.1051 13.3087ZM65.9736 16.3693C65.0273 18.2915 64.5542 20.5241 64.5542 23.0672C64.5542 25.6103 65.0273 27.8577 65.9736 29.8094C66.9495 31.7316 68.2654 33.2249 69.9214 34.2895C71.5774 35.3245 73.4108 35.842 75.4216 35.842C77.1663 35.842 78.6892 35.4871 79.9904 34.7774C81.3211 34.0677 82.3561 33.1362 83.0953 31.9829V35.4871H90.6804V10.736H83.0953V14.2402C82.3856 13.0869 81.3654 12.1554 80.0347 11.4457C78.7336 10.736 77.2107 10.3812 75.466 10.3812C73.4256 10.3812 71.5774 10.8987 69.9214 11.9337C68.2654 12.9686 66.9495 14.4472 65.9736 16.3693ZM81.4985 18.6315C82.5631 19.7257 83.0953 21.219 83.0953 23.1116C83.0953 25.0041 82.5631 26.4975 81.4985 27.5916C80.4635 28.6857 79.1919 29.2328 77.6838 29.2328C76.1757 29.2328 74.8893 28.6857 73.8248 27.5916C72.7898 26.4679 72.2723 24.9598 72.2723 23.0672C72.2723 21.1747 72.7898 19.6961 73.8248 18.6315C74.8893 17.5374 76.1757 16.9903 77.6838 16.9903C79.1919 16.9903 80.4635 17.5374 81.4985 18.6315ZM98.5841 34.733C100.27 35.4723 102.192 35.842 104.35 35.842C106.361 35.842 108.121 35.5167 109.629 34.8661C111.167 34.2155 112.335 33.3284 113.133 32.2047C113.961 31.0514 114.375 29.7503 114.375 28.3013C114.346 26.5862 113.887 25.2259 113 24.2205C112.142 23.1855 111.137 22.4462 109.984 22.0026C108.831 21.5295 107.337 21.0564 105.504 20.5832C103.907 20.2284 102.724 19.8735 101.955 19.5187C101.216 19.1638 100.846 18.6315 100.846 17.9218C100.846 17.3304 101.083 16.872 101.556 16.5468C102.029 16.1919 102.709 16.0145 103.596 16.0145C104.631 16.0145 105.459 16.2658 106.08 16.7685C106.731 17.2713 107.115 17.9514 107.234 18.809H114.242C113.976 16.2658 112.941 14.2254 111.137 12.6877C109.363 11.15 106.923 10.3812 103.818 10.3812C101.719 10.3812 99.9 10.7212 98.3623 11.4014C96.8542 12.0815 95.7009 13.013 94.9025 14.1958C94.1336 15.3491 93.7492 16.6355 93.7492 18.0549C93.7492 19.7404 94.178 21.0859 95.0356 22.0914C95.8931 23.0672 96.9133 23.7917 98.0962 24.2648C99.279 24.7084 100.758 25.1372 102.532 25.5512C104.188 25.9652 105.385 26.3496 106.125 26.7045C106.864 27.0297 107.234 27.5472 107.234 28.257C107.234 28.8484 106.968 29.3363 106.435 29.7207C105.933 30.0756 105.208 30.253 104.262 30.253C103.227 30.253 102.354 29.9869 101.645 29.4546C100.935 28.9223 100.536 28.2274 100.447 27.3698H92.9508C93.0691 28.9667 93.6161 30.4156 94.592 31.7168C95.5678 32.9883 96.8985 33.9938 98.5841 34.733ZM139.175 13.3087C137.46 11.4162 135.183 10.4699 132.344 10.4699C130.688 10.4699 129.194 10.7952 127.864 11.4457C126.533 12.0963 125.483 12.9686 124.714 14.0628V2.66309H117.129V35.4871H124.714V22.047C124.714 20.391 125.143 19.1047 126.001 18.188C126.858 17.2713 128.012 16.8129 129.46 16.8129C130.909 16.8129 132.063 17.2713 132.92 18.188C133.778 19.1047 134.207 20.391 134.207 22.047V35.4871H141.747V21.0268C141.747 17.7444 140.89 15.1717 139.175 13.3087ZM15.7017 2.66829H10.3988L8.87588 9.63887L2.65234 9.64918L2.65251 14.8438L7.74055 14.8354L5.97019 22.9385L0 22.9484L0.000159759 28.143L4.83486 28.135L3.32825 35.0309H8.63117L10.1397 28.1262L22.519 28.1057L21.006 35.0309H26.3089L27.8238 28.0969L33.0274 28.0883V22.8937L28.9592 22.9004L30.7295 14.7973L35.6797 14.7891V9.59446L31.8648 9.60078L33.3795 2.66829H28.0765L26.56 9.60957L14.1807 9.63008L15.7017 2.66829ZM25.3597 15.1037L23.6543 22.9092L11.275 22.9297L13.0441 14.8323L17.9357 18.3947C18.1322 18.5378 18.3919 18.5598 18.6096 18.4518L25.3597 15.1037ZM18.4646 16.3226L14.9183 14.8764H23.6266L18.9042 16.3416C18.7599 16.3864 18.6045 16.3797 18.4646 16.3226Z" fill="url(#paint0_linear_1_192)"/>
</g>
<defs>
<linearGradient id="paint0_linear_1_192" x1="6.75165" y1="21.03" x2="132.524" y2="15.5705" gradientUnits="userSpaceOnUse">
<stop stop-color="#E27469"/>
<stop offset="1" stop-color="#D74634"/>
</linearGradient>
<clipPath id="clip0_1_192">
<rect width="239.075" height="35.9994" fill="white"/>
</clipPath>
</defs>
</svg>
